<svg xmlns="http://www.w3.org/2000/svg" viewBox="0 0 96 96"><defs><style>.cls-1{fill:#f1e7d3;}.cls-2{fill:#65afa9;}.cls-3{fill:#3a3c42;}.cls-4{fill:#086580;}</style></defs><title>SOFTWARE</title><g id="Layer_2" data-name="Layer 2"><g id="Layer_1-2" data-name="Layer 1"><g id="SOFTWARE"><rect class="cls-1" width="96" height="96"/><rect class="cls-2" x="72" y="8" width="24" height="88"/><rect class="cls-2" y="8" width="8" height="88"/><rect class="cls-3" width="96" height="8"/><path class="cls-3" d="M60,65H20a1,1,0,0,1-1-1V24a1,1,0,0,1,1-1H60a1,1,0,0,1,1,1V64A1,1,0,0,1,60,65ZM21,63H59V25H21Z"/><rect class="cls-3" x="11.72" y="43" width="56.57" height="2" transform="translate(-19.4 41.17) rotate(-45)"/><rect class="cls-3" x="39" y="15.72" width="2" height="56.57" transform="translate(-19.4 41.17) rotate(-45)"/><rect class="cls-4" x="72" y="31" width="24" height="2"/><rect class="cls-4" y="15" width="8" height="2"/><rect class="cls-4" y="23" width="8" height="2"/><rect class="cls-4" y="31" width="8" height="2"/><rect class="cls-1" x="4" y="3" width="14" height="2"/><rect class="cls-4" y="39" width="8" height="2"/><rect class="cls-4" y="47" width="8" height="2"/><rect class="cls-4" y="55" width="8" height="2"/><rect class="cls-4" y="63" width="8" height="2"/><rect class="cls-4" y="71" width="8" height="2"/><rect class="cls-4" x="72" y="55" width="24" height="2"/><rect class="cls-4" x="72" y="63" width="24" height="2"/><rect class="cls-4" x="72" y="71" width="24" height="2"/><rect class="cls-4" x="77" y="39" width="14" height="2"/><rect class="cls-4" x="77" y="47" width="14" height="2"/><rect class="cls-4" x="72" y="79" width="24" height="2"/><rect class="cls-4" x="72" y="87" width="24" height="2"/><rect class="cls-1" x="91" y="27" width="2" height="2"/><rect class="cls-1" x="83" y="27" width="2" height="2"/><rect class="cls-1" x="91" y="19" width="2" height="2"/><rect class="cls-1" x="83" y="19" width="2" height="2"/><rect class="cls-1" x="75" y="27" width="2" height="2"/><rect class="cls-1" x="75" y="19" width="2" height="2"/><rect class="cls-1" x="91" y="11" width="2" height="2"/><rect class="cls-1" x="83" y="11" width="2" height="2"/><rect class="cls-1" x="75" y="11" width="2" height="2"/><rect class="cls-2" x="47" y="89" width="2" height="2"/><rect class="cls-2" x="39" y="89" width="2" height="2"/><rect class="cls-2" x="31" y="89" width="2" height="2"/></g></g></g></svg>