<svg xmlns="http://www.w3.org/2000/svg" viewBox="0 0 112 113"><defs><style>.cls-1{fill:#3a3c42;}.cls-2{fill:#ffbd95;}.cls-3{fill:#c86f85;}.cls-4{fill:#65afa9;}.cls-5{fill:#388b9a;}.cls-6{fill:#f1e7d3;}</style></defs><title>PRECISION</title><g id="Layer_2" data-name="Layer 2"><g id="Layer_1-2" data-name="Layer 1"><g id="PRECISION"><polygon class="cls-1" points="38 59 73 59 71.06 55 39.95 55 38 59"/><path class="cls-1" d="M83.76,61H82l-4-8h3.76a2,2,0,0,1,1.79,1.11l2,4A2,2,0,0,1,83.76,61Z"/><path class="cls-2" d="M56,113a51.09,51.09,0,0,1-32.64-11.81l1.28-1.54a49,49,0,0,0,62.72,0l1.28,1.54A51,51,0,0,1,56,113Z"/><path class="cls-2" d="M99.57,88.52l-1.71-1A49,49,0,0,0,71.68,15.56l.64-1.89A51,51,0,0,1,99.57,88.52Z"/><path class="cls-2" d="M12.43,88.52A51,51,0,0,1,39.68,13.67l.64,1.89A49,49,0,0,0,14.14,87.48Z"/><path class="cls-3" d="M59,8H53V3a3,3,0,0,1,3-3h0a3,3,0,0,1,3,3Z"/><rect class="cls-4" x="-1" y="63.45" width="72.99" height="2" transform="translate(-38.03 66.98) rotate(-63.12)"/><rect class="cls-4" x="75.5" y="27.95" width="2" height="72.99" transform="translate(-20.87 41.55) rotate(-26.88)"/><path class="cls-4" d="M46.36,27.12,20.26,78.57A8.12,8.12,0,0,0,23,89L52.25,31.39A11.91,11.91,0,0,1,46.36,27.12Z"/><path class="cls-4" d="M91.74,78.57,65.64,27.12a11.91,11.91,0,0,1-5.89,4.27L89,89A8.12,8.12,0,0,0,91.74,78.57Z"/><circle class="cls-5" cx="56" cy="20" r="13"/><path class="cls-6" d="M56,27a7,7,0,1,1,7-7A7,7,0,0,1,56,27Zm0-12a5,5,0,1,0,5,5A5,5,0,0,0,56,15Z"/><rect class="cls-4" x="55" y="89" width="2" height="2"/><rect class="cls-4" x="55" y="81" width="2" height="2"/><rect class="cls-4" x="63" y="89" width="2" height="2"/><rect class="cls-4" x="47" y="89" width="2" height="2"/><rect class="cls-4" x="110" y="8" width="2" height="2"/><rect class="cls-4" x="102" y="8" width="2" height="2"/><rect class="cls-4" x="94" y="8" width="2" height="2"/><rect class="cls-4" y="24" width="2" height="2"/><rect class="cls-4" y="16" width="2" height="2"/><rect class="cls-4" y="8" width="2" height="2"/></g></g></g></svg>