<svg xmlns="http://www.w3.org/2000/svg" viewBox="0 0 112 112"><defs><style>.cls-1{fill:#388b9a;}.cls-2{fill:#65afa9;}.cls-3{fill:#ffbd95;}</style></defs><title>RASTER</title><g id="Layer_2" data-name="Layer 2"><g id="Layer_1-2" data-name="Layer 1"><g id="RASTER"><rect class="cls-1" x="48" width="16" height="16"/><rect class="cls-2" y="48" width="16" height="16"/><rect class="cls-2" x="96" y="48" width="16" height="16"/><rect class="cls-1" x="48" y="96" width="16" height="16"/><rect class="cls-1" x="32" y="80" width="16" height="16"/><rect class="cls-2" x="16" y="64" width="16" height="16"/><rect class="cls-2" x="16" y="32" width="16" height="16"/><rect class="cls-1" x="64" y="16" width="16" height="16"/><rect class="cls-2" x="80" y="32" width="16" height="16"/><rect class="cls-2" x="80" y="64" width="16" height="16"/><rect class="cls-1" x="64" y="80" width="16" height="16"/><rect class="cls-1" x="32" y="16" width="16" height="16"/><polygon class="cls-3" points="43.14 42.95 51.89 68.67 57.55 63.02 66.03 71.5 71.69 65.84 63.2 57.36 68.86 51.7 43.14 42.95"/><rect class="cls-2" x="94" y="16" width="2" height="2"/><rect class="cls-2" x="102" y="8" width="2" height="2"/><rect class="cls-2" x="110" width="2" height="2"/><rect class="cls-2" x="16" y="110" width="2" height="2"/><rect class="cls-2" x="8" y="110" width="2" height="2"/><rect class="cls-2" x="16" y="102" width="2" height="2"/><rect class="cls-2" x="8" y="102" width="2" height="2"/><rect class="cls-2" y="110" width="2" height="2"/><rect class="cls-2" y="102" width="2" height="2"/><rect class="cls-2" x="16" y="94" width="2" height="2"/><rect class="cls-2" x="8" y="94" width="2" height="2"/><rect class="cls-2" y="94" width="2" height="2"/></g></g></g></svg>