<svg xmlns="http://www.w3.org/2000/svg" viewBox="0 0 100 104"><defs><style>.cls-1{fill:#f1e7d3;}.cls-2{fill:#388b9a;}.cls-3{fill:#ffbd95;}.cls-4{fill:#c86f85;}.cls-5{fill:#65afa9;}</style></defs><title>POSTER</title><g id="Layer_2" data-name="Layer 2"><g id="Layer_1-2" data-name="Layer 1"><g id="POSTER"><path class="cls-1" d="M80,104V8a8,8,0,0,1,8-8H8A8,8,0,0,0,0,8v96Z"/><rect class="cls-2" x="8" y="8" width="64" height="88" transform="translate(80 104) rotate(180)"/><path class="cls-3" d="M88,0a8,8,0,0,0-8,8H96A8,8,0,0,0,88,0Z"/><path class="cls-3" d="M52,47H32a1,1,0,0,1-1-1V26h2V45H52Z"/><path class="cls-1" d="M40,59a21,21,0,0,1,0-42v2A19,19,0,1,0,59,38h2A21,21,0,0,1,40,59Z"/><path class="cls-4" d="M52,35a1,1,0,0,1-.71-.29l-8-8a1,1,0,0,1,0-1.42l8-8a1,1,0,0,1,1.42,0l8,8a1,1,0,0,1,0,1.42l-8,8A1,1,0,0,1,52,35Zm-6.59-9L52,32.59,58.59,26,52,19.41Z"/><rect class="cls-1" x="43" y="68" width="16" height="2"/><rect class="cls-1" x="43" y="76" width="16" height="2"/><rect class="cls-1" x="43" y="84" width="16" height="2"/><rect class="cls-1" x="34" y="84" width="2" height="2"/><rect class="cls-1" x="26" y="84" width="2" height="2"/><rect class="cls-1" x="34" y="76" width="2" height="2"/><rect class="cls-1" x="26" y="76" width="2" height="2"/><rect class="cls-1" x="18" y="84" width="2" height="2"/><rect class="cls-1" x="18" y="76" width="2" height="2"/><rect class="cls-1" x="34" y="68" width="2" height="2"/><rect class="cls-1" x="26" y="68" width="2" height="2"/><rect class="cls-1" x="18" y="68" width="2" height="2"/><rect class="cls-5" x="90" y="55" width="2" height="2"/><rect class="cls-5" x="98" y="55" width="2" height="2"/><rect class="cls-5" x="90" y="63" width="2" height="2"/><rect class="cls-5" x="90" y="47" width="2" height="2"/></g></g></g></svg>