<svg xmlns="http://www.w3.org/2000/svg" viewBox="0 0 112 112"><defs><style>.cls-1{fill:#c86f85;}.cls-2{fill:#ffbd95;}.cls-3{fill:#65afa9;}.cls-4{fill:#388b9a;}</style></defs><title>LOGO</title><g id="Layer_2" data-name="Layer 2"><g id="Layer_1-2" data-name="Layer 1"><g id="LOGO"><path class="cls-1" d="M84,32H80v8h4a16,16,0,0,1,0,32H40v8H84a24,24,0,0,0,24-24h0A24,24,0,0,0,84,32Z"/><path class="cls-2" d="M40,32H28A24,24,0,0,0,4,56H4A24,24,0,0,0,28,80h4V72H28a16,16,0,0,1,0-32H72V32Z"/><path class="cls-3" d="M56,4A24,24,0,0,0,32,28v4h8V28a16,16,0,0,1,32,0V72h8V28A24,24,0,0,0,56,4Z"/><path class="cls-4" d="M72,80v4a16,16,0,0,1-32,0V40H32V84a24,24,0,0,0,48,0V80Z"/><rect class="cls-3" width="2" height="2"/><rect class="cls-3" x="8" width="2" height="2"/><rect class="cls-3" y="8" width="2" height="2"/><rect class="cls-3" y="16" width="2" height="2"/><rect class="cls-3" x="8" y="8" width="2" height="2"/><rect class="cls-3" x="16" width="2" height="2"/><rect class="cls-3" x="110" y="110" width="2" height="2"/><rect class="cls-3" x="102" y="110" width="2" height="2"/><rect class="cls-3" x="110" y="102" width="2" height="2"/><rect class="cls-3" x="102" y="102" width="2" height="2"/><rect class="cls-3" x="94" y="110" width="2" height="2"/><rect class="cls-3" x="94" y="102" width="2" height="2"/><rect class="cls-3" x="110" y="94" width="2" height="2"/><rect class="cls-3" x="102" y="94" width="2" height="2"/><rect class="cls-3" x="94" y="94" width="2" height="2"/></g></g></g></svg>