<svg xmlns="http://www.w3.org/2000/svg" viewBox="0 0 110.82 113"><defs><style>.cls-1{fill:#f1e7d3;}.cls-2{fill:#388b9a;}.cls-3{fill:#c86f85;}.cls-4{fill:#65afa9;}</style></defs><title>VISUALIZATION</title><g id="Layer_2" data-name="Layer 2"><g id="Layer_1-2" data-name="Layer 1"><g id="VISUALIZATION"><path class="cls-1" d="M110.82,81a2,2,0,0,0-.47-1.29c-.64-.75-1.55-1.79-2.7-3-.58-.63-1.23-1.3-1.93-2-1.4-1.44-3-3-4.89-4.72-.92-.84-1.9-1.7-2.93-2.57s-2.1-1.75-3.22-2.63C84.57,56.83,70.71,49,55.41,49c-.78,0-1.56,0-2.33.07l-.84,0-1.44.12-1.06.12-1.15.16-1.21.19-.85.16a55,55,0,0,0-7.31,1.94,72.59,72.59,0,0,0-15.81,7.75c-.69.45-1.37.9-2,1.36l-.65.45-1.32.93-.74.54-1.16.87-.75.57-1.08.84-.73.58-1,.85-.68.56-1,.87-.6.52-1.06.94-.47.42c-1,.9-1.92,1.78-2.79,2.62l-.42.41L6,73.72l-.45.46-.7.71-.44.46L3.82,76c-.14.15-.27.3-.41.44L2.87,77c-.12.13-.25.26-.36.39L2,78l-.29.33-.48.54-.2.23-.57.66a2,2,0,0,0,0,2.56l.57.66.2.23.48.54L2,84l.5.55c.11.13.24.26.36.39l.54.59c.14.14.27.29.41.44l.62.64.44.46.7.71.45.46.84.83.42.41c.87.84,1.8,1.72,2.79,2.62l.47.42,1.06.94.6.52,1,.87.68.56,1,.85.73.58,1.08.84.75.57,1.16.87.74.54,1.32.93.65.45c.67.46,1.35.91,2,1.36a72.59,72.59,0,0,0,15.81,7.75,55,55,0,0,0,7.31,1.94l.85.16,1.21.19,1.15.16,1.06.12,1.44.12.84.05c.77,0,1.55.07,2.33.07,15.3,0,29.16-7.83,39.27-15.74,1.12-.88,2.2-1.76,3.22-2.63s2-1.73,2.93-2.57c1.85-1.68,3.49-3.28,4.89-4.72.7-.72,1.35-1.39,1.93-2,1.15-1.24,2.06-2.28,2.7-3A2,2,0,0,0,110.82,81Z"/><circle class="cls-2" cx="55.41" cy="81" r="27"/><path class="cls-3" d="M52,40.39l-17-8.5a1,1,0,0,1-.56-.89V14h2V30.38l16.45,8.23Z"/><path class="cls-3" d="M55.41,42a1,1,0,0,1-1-1V21a1,1,0,0,1,.56-.89l16-8,.89,1.78L56.41,21.62V39.38L72,31.61l.89,1.78-17,8.5A1,1,0,0,1,55.41,42Z"/><path class="cls-3" d="M76.41,31h-2V11.62l-19-9.5L37.65,11l15.21,7.61L52,20.39l-17-8.5a1,1,0,0,1,0-1.78l20-10a.94.94,0,0,1,.89,0l20,10a1,1,0,0,1,.55.89Z"/><path class="cls-1" d="M65.79,77.33a10.87,10.87,0,0,0-1.44-2.74L66,73.42a13.34,13.34,0,0,1,1.69,3.24Z"/><path class="cls-1" d="M55.41,94a13,13,0,1,1,8.67-22.69L62.75,72.8A11,11,0,1,0,66.41,81a11.11,11.11,0,0,0-.15-1.83l2-.34A13,13,0,0,1,55.41,94Z"/><rect class="cls-4" x="21.41" y="47" width="2" height="2"/><rect class="cls-4" x="13.41" y="47" width="2" height="2"/><rect class="cls-4" x="21.41" y="39" width="2" height="2"/><rect class="cls-4" x="13.41" y="39" width="2" height="2"/><rect class="cls-4" x="5.41" y="47" width="2" height="2"/><rect class="cls-4" x="5.41" y="39" width="2" height="2"/><rect class="cls-4" x="21.41" y="31" width="2" height="2"/><rect class="cls-4" x="13.41" y="31" width="2" height="2"/><rect class="cls-4" x="5.41" y="31" width="2" height="2"/><rect class="cls-4" x="95.41" y="41" width="2" height="2"/><rect class="cls-4" x="95.41" y="33" width="2" height="2"/><rect class="cls-4" x="103.41" y="41" width="2" height="2"/><rect class="cls-4" x="87.41" y="41" width="2" height="2"/></g></g></g></svg>