<svg xmlns="http://www.w3.org/2000/svg" viewBox="0 0 112 108"><defs><style>.cls-1{fill:#3a3c42;}.cls-2{fill:#f1e7d3;}.cls-3{fill:#65afa9;}.cls-4{fill:#c86f85;}.cls-5{fill:#388b9a;}.cls-6{fill:#ffbd95;}</style></defs><title>PLANNING</title><g id="Layer_2" data-name="Layer 2"><g id="Layer_1-2" data-name="Layer 1"><g id="PLANNING"><path class="cls-1" d="M40,92H96V12a8,8,0,0,0-8-8H72v8H40V4H24a8,8,0,0,0-8,8v88a8,8,0,0,0,8,8H88a8,8,0,0,0,8-8H32A8,8,0,0,0,40,92Z"/><path class="cls-2" d="M40,92H88V12H24V92a8,8,0,0,0,16,0Z"/><path class="cls-3" d="M44,0H68a4,4,0,0,1,4,4v8a0,0,0,0,1,0,0H40a0,0,0,0,1,0,0V4A4,4,0,0,1,44,0Z"/><path class="cls-4" d="M65,37H47a1,1,0,0,1-1-1V24a1,1,0,0,1,1-1H65a1,1,0,0,1,1,1V36A1,1,0,0,1,65,37ZM48,35H64V25H48Z"/><path class="cls-4" d="M65,59H47a1,1,0,0,1-1-1V46a1,1,0,0,1,1-1H65a1,1,0,0,1,1,1V58A1,1,0,0,1,65,59ZM48,57H64V47H48Z"/><path class="cls-4" d="M65,81H47a1,1,0,0,1-1-1V68a1,1,0,0,1,1-1H65a1,1,0,0,1,1,1V80A1,1,0,0,1,65,81ZM48,79H64V69H48Z"/><path class="cls-5" d="M70,75V73a10,10,0,0,0,0-20V51a12,12,0,0,1,0,24Z"/><path class="cls-5" d="M42,53a12,12,0,0,1,0-24v2a10,10,0,0,0,0,20Z"/><rect class="cls-5" x="48" y="5" width="16" height="2"/><path class="cls-6" d="M88,92H40a8,8,0,0,1-8,8H96a8,8,0,0,0,8-8Z"/><rect class="cls-3" y="59" width="2" height="2"/><rect class="cls-3" y="51" width="2" height="2"/><rect class="cls-3" y="43" width="2" height="2"/><rect class="cls-3" x="110" y="59" width="2" height="2"/><rect class="cls-3" x="110" y="51" width="2" height="2"/><rect class="cls-3" x="110" y="43" width="2" height="2"/></g></g></g></svg>