<svg xmlns="http://www.w3.org/2000/svg" viewBox="0 0 98 110"><defs><style>.cls-1{fill:#ffbd95;}.cls-2{fill:#c86f85;}.cls-3{fill:#388b9a;}.cls-4{fill:#65afa9;}</style></defs><title>BRAINSTORMING</title><g id="Layer_2" data-name="Layer 2"><g id="Layer_1-2" data-name="Layer 1"><g id="BRAINSTORMING"><path class="cls-1" d="M89,76h-.59A13,13,0,0,0,73.94,55.91,13,13,0,0,0,61,44c-.36,0-.73,0-1.08,0a1.09,1.09,0,0,0-.66.32l-9.47,10.3a13,13,0,0,0-25.73,1.15,13.13,13.13,0,0,0-3.82-.57A13,13,0,0,0,9.83,76H9A9,9,0,0,0,4.9,93,9,9,0,0,0,9,110H33a9,9,0,0,0,8.94-8H57a9,9,0,0,0,8.94-8H89a9,9,0,0,0,0-18Z"/><path class="cls-2" d="M9,94A9,9,0,0,1,9,76h8v2H9A7,7,0,0,0,9,92Z"/><path class="cls-2" d="M17,78V76a7,7,0,0,0,7-7h2A9,9,0,0,1,17,78Z"/><path class="cls-2" d="M89,94H49V92H89a7,7,0,0,0,0-14H65a1,1,0,0,1-1-1,7,7,0,0,0-7-7V68a9,9,0,0,1,9,8H89a9,9,0,0,1,0,18Z"/><path class="cls-2" d="M81,86H41a9,9,0,0,1,0-18v2a7,7,0,0,0,0,14H81Z"/><path class="cls-2" d="M57,102H17v-2H57a7,7,0,0,0,7-7h2A9,9,0,0,1,57,102Z"/><path class="cls-3" d="M65.83,30.45A1,1,0,0,0,65,30H50V1a1,1,0,0,0-.8-1,1,1,0,0,0-1.12.59l-16,38a1,1,0,0,0,.09.94A1,1,0,0,0,33,40H48V69a1,1,0,0,0,.8,1l.2,0a1,1,0,0,0,.92-.61l16-38A1,1,0,0,0,65.83,30.45Z"/><rect class="cls-4" x="74" y="20" width="2" height="2"/><rect class="cls-4" x="82" y="12" width="2" height="2"/><rect class="cls-4" x="90" y="4" width="2" height="2"/><rect class="cls-4" x="8" y="20" width="2" height="2"/><rect class="cls-4" x="16" y="12" width="2" height="2"/><rect class="cls-4" x="8" y="12" width="2" height="2"/><rect class="cls-4" x="8" y="4" width="2" height="2"/><rect class="cls-4" y="12" width="2" height="2"/><rect class="cls-4" x="89" y="107" width="2" height="2"/><rect class="cls-4" x="81" y="107" width="2" height="2"/><rect class="cls-4" x="73" y="107" width="2" height="2"/></g></g></g></svg>