<svg xmlns="http://www.w3.org/2000/svg" xmlns:xlink="http://www.w3.org/1999/xlink" viewBox="0 0 68 81" fill="#fff" fill-rule="evenodd" stroke="#000" stroke-linecap="round" stroke-linejoin="round"><use xlink:href="#A" x=".5" y=".5"/><symbol id="A" overflow="visible"><path d="M65.812 60.95L38.3 2.524C37.604 1.06 36.16.094 34.54.01c-1.624-.11-3.173.694-4.02 2.084L.68 50.423a4.52 4.52 0 0 0 .05 4.852l14.59 22.592a4.69 4.69 0 0 0 5.27 1.938l42.336-12.523a4.64 4.64 0 0 0 2.914-2.516 4.54 4.54 0 0 0-.026-3.82l-.002.002zm-6.16 2.506L23.727 74.077c-1.096.326-2.148-.624-1.92-1.73L34.643 10.89c.24-1.15 1.828-1.332 2.33-.268l23.76 50.456c.213.455.215.98.007 1.437s-.606.8-1.09.938h.002z" stroke="none" fill="#000" fill-rule="nonzero"/></symbol></svg>